<svg xmlns="http://www.w3.org/2000/svg" xml:space="preserve" id="Layer_1" x="0" y="0" style="enable-background:new 0 0 512 512" version="1.1" viewBox="0 0 512 512"><style>.st1{fill:#e5e8ec}.st3{fill:#e24b4b}.st6{fill:#3e4347}.st7{fill:#fff}.st8{fill:#cbd0d8}</style><g id="cook_book"><path d="M46.8 460.3h422.5v36.6H46.8z" style="fill:#f4f6f9"/><path d="M458.7 480c0 5.9 4.8 10.7 10.7 10.7v-21.3c-6-.1-10.7 4.7-10.7 10.6z" class="st1"/><path d="M62.5 469.4h406.8c5.9 0 10.7-4.8 10.7-10.7v-448C480 4.8 475.2 0 469.3 0H74.7C51.1 0 32 19.1 32 42.7V480c0 17.7 14.3 32 32 32h405.3c5.9 0 10.7-4.8 10.7-10.7 0-5.9-4.8-10.7-10.7-10.7H64c-5.9 0-10.7-4.8-10.7-10.7 0-5.3 4-9.7 9.2-10.5z" style="fill:#ec5564"/><path d="M254.6 207.6c-3.1.1-6.1-.5-9.1-6.9-5.3-8.9-10.5.1-15.5-4.1-5 2.4-24 10.8-28.4 14.2-2.2 3.2-10.7 13.8-12.8 14.5-4.1 2.9-14.1 6.2-22.2 8.5-7.6 2.2-12.1 12.1-13.4 17.1-2.9 11.9-13.7 35.9-15.4 42.5-.8 2.1-.3 4.4.7 6.6h116v-92.4z" class="st3"/><path d="M377.8 318.8c-2.9 62.2-54.1 113.4-116.3 116.1-70.1 3.2-127.7-52.6-127.7-121.9 0-7.9.8-15.8 2.2-23.3.5-2.6 2.4-4.7 4.8-5.6 41.7-15.7 70.9-47.6 88.1-86.9 1.1-2.4 3.1-4 5.6-4.5 6.9-1.2 14.1-1.8 21.4-1.8 69.3 0 125.2 57.8 121.9 127.9z" style="fill:#8cc63e"/><path d="M378 313c0 67.5-54.7 122.1-122.1 122.1-38.4 0-72.7-17.7-95-45.4 20.9 16.9 47.6 27.1 76.7 27.1 67.4 0 122.1-54.6 122.1-122.1 0-29-10.1-55.7-27.1-76.7 27.6 22.3 45.4 56.6 45.4 95z" style="fill:#7fb239"/><path d="M299.5 395.2c-29.1-7.8-58.2-7.8-87.2 0-4.2 1.1-8-2.5-7.1-6.7 4.8-23.5 25.7-41.3 50.7-41.3 25 0 45.9 17.7 50.8 41.3.8 4.2-3 7.8-7.2 6.7z" class="st6"/><path d="M285.4 392.1c-.4-6-2.6-11.5-6.1-16-3.9-5.1-11-7.2-16.9-4.5-3.9 1.7-8.5 2.6-13.7 2.1h-.2c-9.9-.9-19.4 5-21.4 14.8-.2 1.2-.3 2.4-.4 3.6 19.6-3.5 39.1-3.5 58.7 0z" class="st3"/><path d="M298.8 370.1c-9.3-13.8-25-22.9-42.9-22.9s-33.6 9.1-42.9 22.9c28.5-11.4 57.2-11.4 85.8 0z" class="st7"/><path d="M282.7 376.1c-.1-10-9.1-20.1-9.1-20.1l11.2.7c4.7 12.5-2.1 19.4-2.1 19.4zm-53.7 0c.1-10 9.1-20.1 9.1-20.1l-11.2.7c-4.7 12.5 2.1 19.4 2.1 19.4zm-6 2s-5.3 5.4-3.2 15.4c2.6-.6 5.2-1.1 7.8-1.5-2.2-3.9-4.5-8.9-4.6-13.9zm61.1 13.8 7.8 1.5c2.1-10-3.2-15.4-3.2-15.4-.1 5.1-2.4 10.1-4.6 13.9z" class="st7"/><path d="M255.4 383.2c-13.6 0-25.9 1.2-34.7 4.1.6 1.8 1 3.7 1.3 5.6 22.5-4.7 44.9-4.7 67.4-.1.6-1.7 1.3-3.4 2.2-5-8.8-3.2-21.8-4.6-36.2-4.6z" class="st7"/><path d="M288.6 414.9c-.5-2 1.2-14.9 1.1-15.1-.3-1-.9-.9-1.8-.7-1 .2-2-.7-2-1.7-.3 1.9-.5 6.4-2.3 6.6-.7.1-1.4-.5-1.6-1.2-.5-1 1.2-20.3 1.2-20.4.7-1.9 1.9.9 2.9.9.7 0 1.3-.8 2-.5.7.4.2 1.4.2 2.2 0 1 .9 1.6 1.6 2.3 8.1 7.3-1 16.6 3.2 23.8.5 1 1.3 1.9 1.9 2.8 3.1 5.5-5.2 7.6-6.4 1z" class="st3"/><circle cx="209" cy="304.4" r="30.9" class="st7"/><circle cx="302.6" cy="304.4" r="30.9" class="st7"/><path d="M152.4 273.4v45s3.4 8.1 8.4 1.4-1.7-6.1-1.7-15.5c0-9.5-1.7-16.6 5.7-21.1 7.5-4.4 13-3.8 16.7-12.9s7.3-1.3 3.8 6.7-2.4 14.6 1.4 14.6 5.7-1.9 4-7.2c-1.7-5.3-2.2-18.4-.2-23.8 2.1-5.4 39.8-44.8 38.3-63.7l-41.5 44.8" class="st3"/><path d="M318.8 295.2c0 8.5-6.9 15.5-15.5 15.5-8.5 0-15.5-6.9-15.5-15.5s6.9-15.6 15.5-15.6c8.5 0 15.5 7 15.5 15.6z" class="st6"/><path d="M312.6 293.5c-1.1 1.1-3.7.2-5.8-1.9-2.1-2.1-2.9-4.7-1.9-5.8 1.1-1.1 3.8-.3 5.9 1.8 2.1 2.1 3 4.7 1.8 5.9z" class="st7"/><path d="M223.1 313.8c0 8.5-6.9 15.5-15.5 15.5s-15.5-6.9-15.5-15.5 6.9-15.6 15.5-15.6 15.5 6.9 15.5 15.6z" class="st6"/><path d="M217 312c-1.1 1.1-3.7.2-5.8-1.9-2.1-2.1-2.9-4.7-1.9-5.8 1.1-1.1 3.8-.3 5.9 1.8s2.9 4.8 1.8 5.9z" class="st7"/><path d="M250.1 211.5c20.5-.1 68 13.7 92.1 52.5-12-9.8-31.7-29.1-92.1-52.5z" class="st6"/><path d="M322.3 244.5c.4-.9-44.1-25.5-45.2-25 14.4 3.6 35.1 14.9 45.2 25z" class="st3"/><path d="M294.1 226.8s2.8 8.4 2 14.6c-.8 6.2-.4 13.4 1.6 18s6.7 1.5 5-1.4c-1.7-3-3.2-5.1-1.3-9.2 1.9-4.1 2.9-6.1 3.1-7.9.3-1.8 2.7 0 2 2.5s-1.6 5-.9 6.7c.7 1.7 2.1.2 4 1.3 2 1.1 2 2 3.5 3.4s2.9 1.3 2.9 4.5c0 3.1-1.4 6.6-.7 11.2s-.5 7.1 3.5 9.1c3.9 2 5.2-2.9 2.3-6.9-2.9-4-4.7-10.1-2.8-15.8 1.9-5.7 6-10.1 3.4-13-2.6-3-27.6-17.1-27.6-17.1z" class="st3"/><path d="M266.2 207.4c-2.9 3.5-6.5 10.9-10.4 14.7.5-6 6.1-14 10.4-14.7zm61.7 55c2.7-3.5 6.2-11.1 9.9-15-.2 6.2-5.8 14.1-9.9 15zm-45.6-50.9c-8 4.5-11.6 11.7-16 19.1.1-9.6 9-19.1 16-19.1zm31.9 43.4c7.7-4.3 11.6-11.7 16-19.1-.1 9.6-9 19.1-16 19.1zm-19.4-38c-7.6 4.6-11.1 10.7-15.8 17.5.5-9.3 9.6-17.5 15.8-17.5zm6.1 27.9c7.6-4.6 11.2-10.8 15.8-17.5-.5 9.8-9.9 17.5-15.8 17.5z" class="st6"/><path d="M173.3 237.8v-89.2l-6.5-2.2C142.1 138 126 118.5 126 96.7c0-29.7 29.8-53.8 66.4-53.8 22.9 0 23.3-13.2 35.6 2.5l24.5-9.6 14 1.9c12.3-15.7 33.2 5.2 56.2 5.2 36.6 0 66.4 24.1 66.4 53.8 0 21.8-16 41.3-40.9 49.7l-6.5 2.2v89.2H173.3z" class="st1"/><path d="M324.3 33.4c-7.4 0-14.5.8-21.3 2.3-12.5-7.4-28.1-11.9-44.9-11.9s-32.4 4.4-44.9 11.9c-6.8-1.5-13.9-2.3-21.3-2.3-43.2 0-78.3 27.7-78.3 61.9 0 25.8 19.9 47.8 48.2 57.2V244h192.7v-91.5c28.3-9.3 48.2-31.4 48.2-57.2-.1-34.2-35.2-61.9-78.4-61.9zm21.9 103.5-13.2 4.3V227.1c0-4.7-4.8-8.5-10.7-8.5s-10.7 3.8-10.7 8.5h-10.7c0-4.7-4.8-8.5-10.7-8.5s-10.7 3.8-10.7 8.5h-10.7c0-4.7-4.8-8.5-10.7-8.5s-10.7 3.8-10.7 8.5h-10.7c0-4.7-4.8-8.5-10.7-8.5-5.9 0-10.7 3.8-10.7 8.5h-10.7c0-4.7-4.8-8.5-10.7-8.5-5.9 0-10.7 3.8-10.7 8.5V141.2l-13.2-4.3c-21.3-7-35-23.3-35-41.6 0-24.8 25.5-45 56.9-45 1.3 0 2.5 0 3.7.1-7.5 9-12.1 19.7-12.4 31.3-.1.5-.2.9-.2 1.4 0 4.7 4.8 8.5 10.7 8.5 5.9 0 10.7-3.8 10.7-8.5h.1c0-23.3 24-42.3 53.5-42.3 29 0 52.7 18.4 53.5 41.2-.1.4-.1.7-.1 1.1 0 4.7 4.8 8.5 10.7 8.5s10.7-3.8 10.7-8.5h.1c0-12.1-4.6-23.3-12.4-32.7 1.3-.1 2.5-.1 3.8-.1 31.4 0 56.9 20.2 56.9 45 0 18.2-13.8 34.6-35 41.6z" class="st8"/><path d="M225.8 125.5c0-4.7-4.8-8.5-10.7-8.5-5.9 0-10.7 3.8-10.7 8.5v42.3c0 4.7 4.8 8.5 10.7 8.5 5.9 0 10.7-3.8 10.7-8.5v-42.3zM268.6 125.5c0-4.7-4.8-8.5-10.7-8.5-5.9 0-10.7 3.8-10.7 8.5v42.3c0 4.7 4.8 8.5 10.7 8.5 5.9 0 10.7-3.8 10.7-8.5v-42.3zM311.4 125.5c0-4.7-4.8-8.5-10.7-8.5s-10.7 3.8-10.7 8.5v42.3c0 4.7 4.8 8.5 10.7 8.5s10.7-3.8 10.7-8.5v-42.3z" class="st8"/></g></svg>