<?xml version="1.0" encoding="iso-8859-1"?>
<!-- Generator: Adobe Illustrator 19.0.0, SVG Export Plug-In . SVG Version: 6.00 Build 0)  -->
<svg version="1.1" id="Capa_1" xmlns="http://www.w3.org/2000/svg" xmlns:xlink="http://www.w3.org/1999/xlink" x="0px" y="0px"
	 viewBox="0 0 511.968 511.968" style="enable-background:new 0 0 511.968 511.968;" xml:space="preserve">
<path style="fill:#E24B4B;" d="M253.264,34.992c-6.464,0.192-12.848-0.976-19.152-14.432c-11.12-18.608-21.984,0.24-32.56-8.608
	c-10.56,4.976-50.352,22.672-59.616,29.712c-4.64,6.608-22.464,28.928-26.736,30.464c-8.544,6.032-29.568,12.912-46.48,17.92
	c-15.872,4.704-25.296,25.472-28.064,35.808c-6.176,25.008-28.8,75.344-32.192,89.2C6.832,219.552,7.84,224.32,10,228.832h243.264
	V34.992z"/>
<path style="fill:#8CC63E;" d="M511.68,268.16c-6.08,130.4-113.44,237.76-243.84,243.52C120.96,518.4,0,401.44,0,256
	c0-16.64,1.6-33.12,4.64-48.8c0.96-5.44,4.96-9.76,10.08-11.68c87.36-32.96,148.64-99.84,184.64-182.24
	c2.24-4.96,6.4-8.48,11.68-9.44C225.6,1.28,240.64,0,256,0C401.28,0,518.544,121.28,511.68,268.16z"/>
<path style="fill:#7FB239;" d="M511.968,255.968c0,141.44-114.64,256-256,256c-80.48,0-152.32-37.12-199.28-95.28
	c43.92,35.52,99.84,56.72,160.72,56.72c141.36,0,256-114.56,256-256c0-60.88-21.2-116.8-56.72-160.72
	C474.768,103.648,511.968,175.488,511.968,255.968z"/>
<path style="fill:#3E4347;" d="M347.424,428.368c-60.96-16.272-121.936-16.272-182.896,0c-8.768,2.384-16.784-5.264-14.896-14.144
	c10.144-49.328,53.952-86.496,106.288-86.496c52.448,0,96.144,37.184,106.416,86.496
	C364.192,423.104,356.192,430.752,347.424,428.368z"/>
<path style="fill:#E24B4B;" d="M317.952,421.92c-0.896-12.528-5.44-24.208-12.864-33.648c-8.256-10.688-23.152-15.04-35.44-9.52
	c-8.224,3.6-17.792,5.36-28.768,4.384l-0.32-0.032c-20.832-1.952-40.768,10.48-44.864,31.024c-0.48,2.48-0.704,5.056-0.896,7.648
	C235.856,414.464,276.912,414.496,317.952,421.92z"/>
<g>
	<path style="fill:#FFFFFF;" d="M345.952,375.744c-19.52-28.912-52.496-48.016-90.048-48.016c-37.472,0-70.496,19.12-90,48.048
		C225.936,351.824,285.952,351.824,345.952,375.744z"/>
	<path style="fill:#FFFFFF;" d="M312.288,388.384c-0.256-20.912-19.024-42.192-19.024-42.192l23.408,1.504
		C326.544,373.984,312.288,388.384,312.288,388.384z"/>
	<path style="fill:#FFFFFF;" d="M199.664,388.384c0.256-20.912,19.024-42.192,19.024-42.192l-23.408,1.504
		C185.392,373.984,199.664,388.384,199.664,388.384z"/>
	<path style="fill:#FFFFFF;" d="M187.152,392.448c0,0-11.136,11.344-6.8,32.224c5.488-1.216,10.96-2.272,16.448-3.216
		C192.064,413.52,187.28,402.944,187.152,392.448z"/>
	<path style="fill:#FFFFFF;" d="M315.136,421.456c5.488,0.944,10.96,2,16.448,3.216c4.336-20.864-6.8-32.224-6.8-32.224
		C324.672,402.944,319.888,413.52,315.136,421.456z"/>
	<path style="fill:#FFFFFF;" d="M254.992,403.216c-28.592,0-54.368,2.544-72.768,8.608c1.28,3.808,2.144,7.76,2.8,11.744
		c47.12-9.76,94.224-9.808,141.344-0.128c1.296-3.6,2.704-7.168,4.576-10.48C312.384,406.096,285.28,403.216,254.992,403.216z"/>
</g>
<path style="fill:#E24B4B;" d="M324.592,469.616c-0.976-4.224,2.512-31.2,2.384-31.664c-0.608-2.128-1.936-1.872-3.76-1.504
	c-2.128,0.368-4.256-1.376-4.256-3.504c-0.688,3.968-1.04,13.344-4.88,13.776c-1.504,0.128-2.88-1.008-3.376-2.496
	c-0.992-2.192,2.448-42.496,2.512-42.688c1.376-3.888,3.888,1.872,6.128,1.872c1.504,0,2.752-1.632,4.128-1.008
	c1.552,0.784,0.368,2.992,0.368,4.624c0,2,1.872,3.376,3.376,4.752c17.04,15.328-2.16,34.816,6.64,49.952
	c1.12,2.128,2.752,3.888,4,5.888C344.592,479.072,327.152,483.44,324.592,469.616z"/>
<g>
	<ellipse style="fill:#FFFFFF;" cx="157.84" cy="237.968" rx="64.816" ry="64.88"/>
	<ellipse style="fill:#FFFFFF;" cx="354.064" cy="237.968" rx="64.816" ry="64.88"/>
</g>
<path style="fill:#E24B4B;" d="M39.168,173.072v1.392v93.008c0,0,7.056,17.056,17.536,3.024s-3.536-12.72-3.536-32.544
	s-3.664-34.816,12-44.144s27.328-8,35.008-27.008s15.328-2.672,8,14s-5.072,30.672,2.96,30.672s12.032-4,8.368-15.008
	s-4.672-38.672-0.336-50S202.592,52.64,199.552,12.88l-87.04,93.904"/>
<path style="fill:#3E4347;" d="M387.84,218.72c0,17.92-14.56,32.48-32.48,32.48s-32.48-14.56-32.48-32.48
	c0-18.08,14.56-32.64,32.48-32.64S387.84,200.64,387.84,218.72z"/>
<path style="fill:#FFFFFF;" d="M375.024,215.088c-2.208,2.208-7.728,0.48-12.128-3.936c-4.416-4.416-6.144-9.92-3.936-12.128
	c2.368-2.368,7.872-0.64,12.288,3.776S377.392,212.736,375.024,215.088z"/>
<path style="fill:#3E4347;" d="M187.312,257.632c0,17.92-14.56,32.48-32.48,32.48s-32.48-14.56-32.48-32.48
	c0-18.08,14.56-32.64,32.48-32.64C172.768,224.992,187.312,239.552,187.312,257.632z"/>
<path style="fill:#FFFFFF;" d="M174.512,254c-2.208,2.208-7.728,0.48-12.128-3.936c-4.416-4.416-6.144-9.92-3.936-12.128
	c2.368-2.368,7.872-0.64,12.288,3.776C175.152,246.128,176.88,251.632,174.512,254z"/>
<path style="fill:#3E4347;" d="M243.84,43.296c42.976-0.224,142.496,28.8,193.008,110C411.904,132.736,370.56,92.272,243.84,43.296z
	"/>
<g>
	<path style="fill:#E24B4B;" d="M395.2,112.448c0.896-1.92-92.464-53.408-94.848-52.336
		C330.736,67.504,374.048,91.344,395.2,112.448z"/>
	<path style="fill:#E24B4B;" d="M336.16,75.376c0,0,5.888,17.696,4.176,30.688c-1.728,12.992-0.784,28.048,3.36,37.84
		s14.064,3.2,10.416-3.008c-3.648-6.208-6.656-10.736-2.704-19.392s6.032-12.8,6.592-16.56c0.56-3.76,5.648,0,4.144,5.264
		s-3.392,10.544-1.888,14.112c1.504,3.584,4.336,0.384,8.464,2.64c4.128,2.256,4.176,4.24,7.36,7.2s6,2.768,6,9.36
		s-3.008,13.936-1.504,23.536c1.504,9.6-0.944,14.896,7.248,19.024s10.816-6.032,4.8-14.496c-6.016-8.464-9.792-21.088-5.84-33.136
		s12.608-21.088,7.152-27.296C388.496,104.944,336.16,75.376,336.16,75.376z"/>
</g>
<g>
	<path style="fill:#3E4347;" d="M277.76,34.56c-6.128,7.44-13.584,22.864-21.792,30.8C256.944,52.832,268.608,36.096,277.76,34.56z"
		/>
	<path style="fill:#3E4347;" d="M407.088,149.904c5.68-7.376,12.96-23.376,20.8-31.488
		C427.28,131.552,415.664,148.176,407.088,149.904z"/>
	<path style="fill:#3E4347;" d="M311.392,43.296c-16.816,9.408-24.32,24.528-33.632,40.096
		C278.16,63.088,296.72,43.2,311.392,43.296z"/>
	<path style="fill:#3E4347;" d="M378.32,134.16c16.208-9.072,24.304-24.496,33.632-40.096
		C411.552,114.256,393.024,134.256,378.32,134.16z"/>
	<path style="fill:#3E4347;" d="M337.552,54.624c-16,9.552-23.312,22.448-33.136,36.624
		C305.488,71.824,324.592,54.496,337.552,54.624z"/>
	<path style="fill:#3E4347;" d="M350.48,113.04c16-9.552,23.52-22.736,33.136-36.624C382.496,96.832,362.768,113.152,350.48,113.04z
		"/>
</g>
<g>
</g>
<g>
</g>
<g>
</g>
<g>
</g>
<g>
</g>
<g>
</g>
<g>
</g>
<g>
</g>
<g>
</g>
<g>
</g>
<g>
</g>
<g>
</g>
<g>
</g>
<g>
</g>
<g>
</g>
</svg>
