<?xml version="1.0" standalone="no"?>
<!DOCTYPE svg PUBLIC "-//W3C//DTD SVG 20010904//EN"
 "http://www.w3.org/TR/2001/REC-SVG-20010904/DTD/svg10.dtd">
<svg version="1.0" xmlns="http://www.w3.org/2000/svg"
 width="700.000000pt" height="700.000000pt" viewBox="0 0 700.000000 700.000000"
 preserveAspectRatio="xMidYMid meet">
<metadata>
Created by potrace 1.11, written by Peter Selinger 2001-2013
</metadata>
<g transform="translate(0.000000,700.000000) scale(0.100000,-0.100000)"
fill="#000000" stroke="none">
<path d="M3235 6979 c-167 -12 -345 -39 -393 -60 -24 -10 -56 -32 -71 -48 -24
-25 -28 -38 -26 -78 1 -30 1 -34 -2 -10 -2 20 -6 37 -8 37 -12 0 -559 -262
-654 -313 -126 -68 -120 -62 -259 -237 -163 -204 -212 -250 -342 -314 -67 -33
-209 -87 -358 -135 -275 -90 -308 -109 -394 -216 -72 -89 -131 -212 -181 -380
-58 -192 -92 -287 -224 -626 -96 -245 -111 -278 -136 -289 -35 -15 -86 -66
-99 -99 -13 -35 -43 -212 -59 -351 -17 -147 -17 -571 -1 -715 64 -560 235
-1055 523 -1512 135 -216 284 -400 483 -598 105 -105 243 -230 306 -279 613
-474 1298 -721 2065 -743 834 -24 1619 240 2285 768 136 107 422 394 534 534
656 822 904 1871 690 2913 -105 513 -351 1031 -690 1457 -147 184 -414 442
-606 586 -213 159 -330 232 -553 344 -568 287 -1187 410 -1830 364z m-498
-286 c-3 -10 -5 -4 -5 12 0 17 2 24 5 18 2 -7 2 -21 0 -30z m-31 -127 c-96
-286 -310 -616 -791 -1221 -220 -277 -258 -329 -274 -370 l-11 -30 6 30 c7 38
56 106 260 361 414 517 640 852 756 1119 26 61 53 135 60 165 7 30 14 48 16
38 2 -9 -8 -50 -22 -92z m1053 -51 c-25 -13 -68 -47 -96 -75 l-49 -50 -140 14
c-76 7 -120 14 -96 15 23 0 85 -4 137 -10 l94 -10 38 41 c35 39 126 100 148
99 6 0 -11 -11 -36 -24z m44 -7 c-4 -7 -24 -38 -46 -68 -21 -30 -34 -56 -30
-57 4 -2 71 -18 147 -37 l140 -34 35 28 c70 56 199 97 216 69 6 -8 2 -17 -10
-23 -50 -30 -136 -98 -130 -104 3 -3 65 -27 138 -52 l132 -47 61 34 c33 18 82
37 108 42 61 11 47 -1 -19 -17 -27 -7 -72 -26 -98 -42 l-49 -30 -91 34 c-51
19 -118 42 -149 52 -32 10 -58 20 -58 23 1 10 103 88 133 102 15 7 27 16 27
21 0 27 -130 -16 -199 -66 l-49 -34 -93 23 c-52 13 -122 29 -156 35 l-62 12
27 42 c35 55 73 106 79 106 2 0 1 -6 -4 -12z m-351 -159 c57 -22 104 -42 106
-44 2 -2 -6 -21 -17 -44 -12 -22 -28 -66 -36 -97 -8 -31 -17 -60 -21 -63 -9
-10 6 49 33 127 14 40 24 74 22 76 -2 1 -47 20 -99 40 -52 21 -97 40 -99 42
-10 10 15 1 111 -37z m322 -131 l125 -51 -20 -29 c-31 -43 -67 -137 -80 -212
-11 -57 -11 -69 2 -78 12 -8 12 -9 -1 -5 -36 9 -14 133 43 250 30 59 32 69 18
76 -16 9 -211 91 -216 91 -1 0 -18 -24 -38 -53 -20 -29 -53 -68 -73 -87 -30
-29 -28 -24 14 27 27 34 58 76 68 92 10 17 22 31 26 31 4 0 64 -23 132 -52z
m841 16 c-11 -8 -41 -31 -67 -50 -46 -34 -60 -54 -37 -54 35 0 430 -213 580
-313 l27 -18 57 81 c31 44 58 80 61 80 2 0 -22 -40 -55 -89 l-60 -89 -90 59
c-117 77 -267 160 -424 234 -69 33 -125 64 -123 70 3 10 136 105 146 104 3 0
-4 -7 -15 -15z m-493 -169 l127 -57 -24 -38 c-26 -41 -65 -147 -65 -177 0 -10
-5 -25 -10 -33 -29 -45 22 136 56 199 13 24 23 45 22 46 -2 1 -59 28 -127 59
-95 43 -126 54 -133 44 -4 -7 -40 -66 -80 -130 -74 -123 -103 -160 -48 -60 64
113 133 213 144 209 6 -3 68 -30 138 -62z m398 -192 c96 -51 109 -61 108 -83
-1 -24 -1 -24 -5 -2 -4 18 -36 38 -152 96 l-147 74 -74 -108 c-41 -60 -77
-107 -78 -105 -4 4 55 94 115 177 l34 47 44 -19 c25 -11 94 -45 155 -77z m735
35 c-4 -24 -18 -72 -31 -108 -13 -35 -22 -65 -21 -65 17 -9 149 -115 205 -163
40 -35 76 -61 81 -58 4 3 34 48 65 100 31 52 61 98 66 101 9 6 -67 -126 -116
-200 l-16 -24 -91 77 c-51 43 -118 97 -149 121 -32 24 -58 46 -58 49 0 3 11
33 24 66 13 34 27 80 31 104 4 23 9 42 12 42 3 0 2 -19 -2 -42z m-606 -292 c1
-92 -6 -62 -12 49 -3 67 -2 85 3 55 5 -25 9 -72 9 -104z m994 57 c-8 -61 -33
-144 -58 -192 l-23 -45 81 -88 c44 -48 83 -88 86 -88 3 0 28 29 54 65 27 36
54 65 60 65 8 0 9 -3 1 -8 -6 -4 -32 -36 -58 -72 -27 -36 -51 -65 -55 -65 -3
0 -45 41 -94 91 l-87 91 30 64 c26 55 35 88 56 197 7 37 13 25 7 -15z m-719
-102 c3 -4 -3 -16 -13 -25 -17 -16 -18 -15 -14 9 5 25 17 32 27 16z m-287 -98
c-2 -16 -4 -3 -4 27 0 30 2 43 4 28 2 -16 2 -40 0 -55z m298 -1 c-6 -4 -11
-18 -12 -32 -2 -14 -6 -50 -9 -81 -6 -49 -4 -59 15 -78 11 -11 17 -21 12 -21
-18 0 -41 45 -41 80 0 19 5 52 11 73 12 44 9 51 -20 42 -20 -6 -61 -81 -87
-160 -7 -22 -13 -32 -13 -22 -1 10 15 56 35 101 32 70 42 84 73 97 35 15 56
16 36 1z m-308 -129 c-2 -21 -4 -6 -4 32 0 39 2 55 4 38 2 -18 2 -50 0 -70z
m1218 -60 c-9 -32 -24 -70 -32 -86 -14 -28 -13 -30 50 -115 102 -139 122 -171
109 -184 -8 -8 -40 13 -119 80 l-108 91 -55 -53 c-30 -30 -69 -61 -87 -70 -47
-24 -55 -19 -8 6 22 11 63 45 92 74 29 30 54 54 57 54 3 0 53 -41 112 -91 58
-50 108 -88 111 -86 5 5 -74 124 -147 222 l-30 40 25 60 c13 33 28 80 32 105
4 25 9 37 11 28 2 -10 -4 -44 -13 -75z m-248 -82 c40 -31 72 -60 73 -65 0 -12
-99 -174 -112 -182 -12 -8 -12 -7 38 71 17 28 39 64 48 82 l16 32 -100 76
-100 76 -65 -52 c-61 -48 -66 -55 -89 -127 -14 -42 -25 -69 -26 -60 -1 35 49
150 72 166 12 9 41 33 63 53 l40 38 35 -27 c19 -14 67 -51 107 -81z m-960 32
c-2 -16 -4 -5 -4 22 0 28 2 40 4 28 2 -13 2 -35 0 -50z m360 31 c-3 -3 -12 -4
-19 -1 -8 3 -5 6 6 6 11 1 17 -2 13 -5z m127 -89 l86 -85 -2 -72 -1 -73 -6 75
-6 75 -79 75 c-43 41 -86 78 -95 82 -14 6 -14 7 1 7 9 1 55 -37 102 -84z
m-337 43 c-3 -7 -5 -2 -5 12 0 14 2 19 5 13 2 -7 2 -19 0 -25z m-140 -55 c-3
-10 -5 -4 -5 12 0 17 2 24 5 18 2 -7 2 -21 0 -30z m195 -70 c21 -37 27 -58 22
-77 -6 -27 -47 -66 -68 -66 -6 0 3 9 20 19 48 29 50 60 9 138 -19 36 -35 73
-34 82 0 9 5 3 11 -14 6 -16 24 -53 40 -82z m-185 25 c-3 -8 -6 -5 -6 6 -1 11
2 17 5 13 3 -3 4 -12 1 -19z m64 -134 c13 -13 28 -24 35 -24 7 0 16 -4 19 -10
10 -16 -27 1 -54 24 -25 22 -61 91 -60 116 0 8 9 -7 19 -34 11 -27 29 -59 41
-72z m573 -149 c6 -29 6 -29 -5 -5 -6 14 -13 66 -14 115 l-4 90 8 -85 c5 -47
11 -98 15 -115z m-3667 73 c-3 -7 -5 -2 -5 12 0 14 2 19 5 13 2 -7 2 -19 0
-25z m3564 -88 c-7 -97 -8 -104 -10 -44 -1 66 8 168 15 162 1 -2 -1 -55 -5
-118z m-3574 8 c-2 -13 -4 -3 -4 22 0 25 2 35 4 23 2 -13 2 -33 0 -45z m-123
-20 c9 -12 16 -32 15 -43 0 -13 -4 -9 -10 12 -21 72 -55 50 -114 -73 -72 -152
-112 -188 -331 -294 -157 -77 -187 -96 -228 -141 -27 -30 -52 -70 -60 -98 -8
-25 -15 -37 -15 -26 -1 35 36 102 79 145 31 31 88 64 217 126 214 103 257 140
327 286 39 84 73 128 98 128 4 0 14 -10 22 -22z m113 -190 c-2 -35 -3 -7 -3
62 0 69 1 97 3 63 2 -35 2 -91 0 -125z m3771 38 c18 -28 32 -54 32 -60 0 -22
-94 144 -104 184 -3 14 4 3 17 -25 13 -27 38 -72 55 -99z m-3861 37 c-3 -10
-5 -2 -5 17 0 19 2 27 5 18 2 -10 2 -26 0 -35z m3680 -75 c-2 -18 -4 -6 -4 27
0 33 2 48 4 33 2 -15 2 -42 0 -60z m-3697 -18 l-11 -25 6 25 c2 14 5 36 6 50
l2 25 4 -25 c2 -14 -1 -37 -7 -50z m878 10 c42 -11 118 -40 169 -65 326 -160
518 -483 500 -840 -7 -139 -26 -214 -88 -342 -98 -203 -274 -371 -468 -444
-134 -50 -206 -62 -360 -57 -131 4 -156 8 -241 37 -235 79 -418 238 -526 456
-69 140 -87 223 -87 395 0 128 3 155 27 234 30 99 112 268 120 246 2 -8 7 -28
11 -43 3 -16 17 -40 30 -53 35 -35 112 -34 153 1 44 37 47 68 18 186 -14 60
-24 132 -24 169 1 54 2 57 5 18 2 -27 6 -48 9 -48 3 0 26 14 50 31 96 66 233
117 372 139 80 12 238 3 330 -20z m2667 1 c119 -29 162 -50 183 -91 26 -48
100 -88 139 -75 15 6 33 22 40 35 8 16 13 19 13 9 0 -9 -7 -22 -15 -29 -12
-10 -4 -22 53 -78 293 -289 353 -720 151 -1079 -31 -56 -74 -108 -149 -183
-120 -120 -200 -170 -350 -221 -84 -29 -111 -33 -236 -37 -159 -5 -244 8 -366
58 -255 104 -452 325 -528 590 -31 109 -38 290 -16 400 57 278 231 508 481
633 187 93 395 117 600 68z m372 -53 c-3 -8 -6 -5 -6 6 -1 11 2 17 5 13 3 -3
4 -12 1 -19z m-3962 -93 c-19 -55 -35 -92 -35 -83 0 19 60 191 66 186 1 -2
-13 -48 -31 -103z m3972 53 c-3 -8 -6 -5 -6 6 -1 11 2 17 5 13 3 -3 4 -12 1
-19z m-4892 -67 c-13 -12 -296 -133 -301 -128 -3 3 289 133 306 136 2 1 0 -3
-5 -8z m882 -173 c-2 -18 -4 -6 -4 27 0 33 2 48 4 33 2 -15 2 -42 0 -60z
m-670 -220 c-2 -13 -4 -3 -4 22 0 25 2 35 4 23 2 -13 2 -33 0 -45z m-10 -105
c-2 -16 -4 -5 -4 22 0 28 2 40 4 28 2 -13 2 -35 0 -50z m61 -404 c24 -45 41
-84 39 -86 -2 -2 -24 35 -48 83 l-44 86 -1 141 -2 142 7 -142 7 -143 42 -81z
m49 -139 c-11 -81 -114 -200 -174 -200 -38 0 -81 27 -113 72 -17 22 -30 46
-30 51 0 6 13 -8 29 -30 39 -54 78 -83 111 -83 63 0 170 128 170 203 0 15 3
27 6 27 4 0 4 -18 1 -40z m2903 -906 c362 -61 699 -267 935 -573 27 -36 42
-62 34 -59 -86 33 -315 108 -330 108 -15 0 -19 -7 -19 -34 0 -47 -32 -145 -66
-203 l-28 -48 -17 85 c-14 74 -61 207 -88 248 -10 17 -238 57 -406 71 -155 14
-389 14 -535 0 -168 -15 -391 -55 -401 -71 -27 -41 -74 -174 -88 -248 l-17
-85 -28 48 c-34 57 -66 156 -66 201 0 18 -3 35 -6 39 -5 4 -241 -72 -340 -110
-32 -12 107 156 204 248 341 322 796 461 1262 383z m-1539 -723 c-82 -139
-171 -387 -171 -479 0 -72 56 -142 129 -162 31 -8 59 -5 161 20 67 17 125 29
127 26 2 -2 -53 -18 -124 -35 -149 -36 -179 -33 -243 25 -47 43 -64 90 -57
158 7 63 58 225 102 322 38 83 115 218 121 211 2 -2 -18 -41 -45 -86z m2585 8
c57 -97 113 -232 148 -353 41 -140 32 -202 -37 -263 -57 -50 -97 -56 -197 -33
-47 12 -93 23 -102 26 -14 4 -18 -3 -21 -38 l-4 -43 -1 48 c-1 26 0 47 2 47 3
0 51 -11 107 -25 116 -28 155 -24 207 20 48 40 66 88 58 158 -11 112 -105 351
-190 486 -15 22 -26 43 -26 46 0 15 12 -2 56 -76z m-2197 -351 c6 -16 14 -28
19 -28 5 0 51 9 103 19 215 45 363 56 769 55 383 0 501 -8 719 -45 l64 -11 -7
-87 c-4 -47 -9 -87 -11 -89 -2 -2 -52 4 -112 12 -491 71 -1048 56 -1530 -42
l-142 -29 -6 25 c-10 41 -7 186 6 238 12 48 51 136 72 162 8 10 15 -8 28 -70
9 -46 22 -95 28 -110z m1875 149 c39 -66 57 -125 65 -210 4 -42 4 -76 1 -75
-3 2 -28 28 -57 58 -48 51 -52 59 -54 110 -2 52 9 160 17 160 2 0 14 -19 28
-43z m-227 -424 c-2 -16 -4 -3 -4 27 0 30 2 43 4 28 2 -16 2 -40 0 -55z m10
-255 c34 -38 65 -19 89 54 13 40 14 40 9 8 -6 -41 -35 -84 -59 -88 -10 -2 -29
6 -42 19 -23 21 -24 28 -22 128 l2 106 3 -105 c3 -79 8 -109 20 -122z m320
135 c-3 -10 -5 -4 -5 12 0 17 2 24 5 18 2 -7 2 -21 0 -30z m-151 -13 c34 0 34
0 32 -42 -1 -43 -1 -43 -5 -7 -4 34 -7 37 -41 41 -21 3 -40 0 -44 -6 -4 -6 -8
2 -8 17 0 26 1 27 16 13 8 -9 31 -16 50 -16z m141 -42 c-3 -7 -5 -2 -5 12 0
14 2 19 5 13 2 -7 2 -19 0 -25z m-14 -69 c-6 -6 -7 3 -4 23 4 28 6 29 9 9 2
-13 0 -27 -5 -32z m-103 -19 c0 -22 -3 -40 -8 -40 -4 0 -6 18 -4 40 2 22 6 40
8 40 2 0 4 -18 4 -40z"/>
<path d="M1985 3903 c-122 -44 -215 -127 -268 -241 -27 -57 -32 -81 -35 -164
-3 -73 0 -109 13 -150 54 -165 187 -280 358 -309 171 -29 361 61 450 213 69
118 77 288 20 411 -44 93 -118 169 -211 215 -70 34 -83 37 -176 40 -77 2 -113
-2 -151 -15z m313 -178 c87 -57 130 -166 79 -200 -66 -43 -217 84 -217 182 0
16 6 35 13 42 18 19 78 8 125 -24z"/>
<path d="M4780 4449 c-229 -38 -402 -278 -363 -504 42 -245 268 -414 503 -376
361 58 505 493 250 752 -104 105 -247 152 -390 128z m229 -178 c81 -42 148
-151 122 -200 -34 -63 -181 15 -226 121 -19 47 -19 63 1 82 21 21 57 20 103
-3z"/>
</g>
</svg>
